<svg width="36" height="36" viewBox="0 0 36 36" fill="none" xmlns="http://www.w3.org/2000/svg">
<g clip-path="url(#clip0_4_333)">
<path d="M28.0364 14.1455L22.9865 18.9127L24.0504 25.7759L17.9564 22.4459L11.7583 25.5783L13.0415 18.7537L8.14709 13.827L15.0349 12.9389L18.2074 6.76125L21.1809 13.0373L28.0364 14.1455Z" fill="#CBC2D6"/>
<path d="M23.9027 15.4691L23.8963 15.4626L23.9027 15.4691ZM23.9027 15.4691C23.9323 15.4398 23.9556 15.4054 23.9719 15.3681C24.003 15.297 24.009 15.2152 23.9863 15.1379C23.9517 15.02 23.856 14.9327 23.7389 14.9129L22.983 15.6592L22.8381 16.5175L23.4641 15.901L23.5937 15.7733L23.594 15.7731L23.9027 15.4691Z" fill="#BDBDBD" stroke="#CBC2D6" stroke-width="36"/>
<mask id="path-3-inside-1_4_333" fill="white">
<path d="M26.4058 20.9564C26.3277 20.9564 26.249 20.9395 26.1765 20.9058C26.0969 20.8688 26.0274 20.813 25.9741 20.7432C25.9208 20.6733 25.8853 20.5916 25.8707 20.505L25.5079 18.3808C25.4572 18.0855 25.6562 17.8043 25.9522 17.7544C26.2518 17.7044 26.5288 17.9027 26.5794 18.1987L26.8101 19.5487L29.5304 17.9583C29.6851 17.8683 29.8743 17.8591 30.0353 17.9358L32.6017 19.1409L31.997 16.3706C31.959 16.1962 32.009 16.0141 32.1313 15.8833L34.0705 13.8147L31.2489 13.5342C31.1613 13.5255 31.0771 13.4956 31.0036 13.447C30.9301 13.3985 30.8695 13.3329 30.827 13.2558L29.4587 10.7723L28.3197 13.3683C28.2843 13.449 28.2299 13.5199 28.1611 13.5749C28.0922 13.6299 28.011 13.6673 27.9245 13.684L27.0646 13.8492C26.7714 13.9048 26.4852 13.7121 26.429 13.4175C26.4019 13.276 26.4321 13.1295 26.5129 13.0102C26.5937 12.8909 26.7185 12.8085 26.86 12.7812L27.4394 12.6701L28.9054 9.3267C28.9462 9.23389 29.0121 9.15432 29.0957 9.09693C29.1793 9.03954 29.2773 9.00662 29.3786 9.00186C29.5958 8.98358 29.7794 9.1017 29.8792 9.28241L31.6405 12.4802L35.2729 12.8423C35.4789 12.8627 35.6547 12.9984 35.7278 13.1918C35.8009 13.3851 35.7573 13.6038 35.6153 13.7543L33.1185 16.4177L33.8969 19.9847C33.9411 20.1865 33.8666 20.396 33.7049 20.5247C33.6257 20.5879 33.5304 20.6277 33.4298 20.6396C33.3291 20.6515 33.2272 20.6351 33.1354 20.5922L29.8307 19.0411L26.6793 20.884C26.5958 20.9311 26.5016 20.9561 26.4058 20.9564Z"/>
</mask>
<path d="M26.4058 20.9564C26.3277 20.9564 26.249 20.9395 26.1765 20.9058C26.0969 20.8688 26.0274 20.813 25.9741 20.7432C25.9208 20.6733 25.8853 20.5916 25.8707 20.505L25.5079 18.3808C25.4572 18.0855 25.6562 17.8043 25.9522 17.7544C26.2518 17.7044 26.5288 17.9027 26.5794 18.1987L26.8101 19.5487L29.5304 17.9583C29.6851 17.8683 29.8743 17.8591 30.0353 17.9358L32.6017 19.1409L31.997 16.3706C31.959 16.1962 32.009 16.0141 32.1313 15.8833L34.0705 13.8147L31.2489 13.5342C31.1613 13.5255 31.0771 13.4956 31.0036 13.447C30.9301 13.3985 30.8695 13.3329 30.827 13.2558L29.4587 10.7723L28.3197 13.3683C28.2843 13.449 28.2299 13.5199 28.1611 13.5749C28.0922 13.6299 28.011 13.6673 27.9245 13.684L27.0646 13.8492C26.7714 13.9048 26.4852 13.7121 26.429 13.4175C26.4019 13.276 26.4321 13.1295 26.5129 13.0102C26.5937 12.8909 26.7185 12.8085 26.86 12.7812L27.4394 12.6701L28.9054 9.3267C28.9462 9.23389 29.0121 9.15432 29.0957 9.09693C29.1793 9.03954 29.2773 9.00662 29.3786 9.00186C29.5958 8.98358 29.7794 9.1017 29.8792 9.28241L31.6405 12.4802L35.2729 12.8423C35.4789 12.8627 35.6547 12.9984 35.7278 13.1918C35.8009 13.3851 35.7573 13.6038 35.6153 13.7543L33.1185 16.4177L33.8969 19.9847C33.9411 20.1865 33.8666 20.396 33.7049 20.5247C33.6257 20.5879 33.5304 20.6277 33.4298 20.6396C33.3291 20.6515 33.2272 20.6351 33.1354 20.5922L29.8307 19.0411L26.6793 20.884C26.5958 20.9311 26.5016 20.9561 26.4058 20.9564Z" fill="#CBC2D6"/>
<path d="M26.4058 20.9564V50.9564H26.4587L26.5117 50.9562L26.4058 20.9564ZM26.1765 20.9058L38.8486 -6.28647L38.8266 -6.29672L38.8046 -6.30694L26.1765 20.9058ZM25.8707 20.505L55.4512 15.5058L55.4468 15.4799L55.4424 15.454L25.8707 20.505ZM25.5079 18.3808L55.0796 13.3299L55.0781 13.3209L55.0765 13.3119L25.5079 18.3808ZM25.9522 17.7544L21.0203 -11.8375L20.9918 -11.8327L20.9633 -11.8279L25.9522 17.7544ZM26.5794 18.1987L56.151 13.1469L56.1501 13.1415L26.5794 18.1987ZM26.8101 19.5487L-2.76154 24.6005L4.53667 67.3218L41.9516 45.4473L26.8101 19.5487ZM29.5304 17.9583L14.4436 -7.97218L14.4163 -7.95626L14.3889 -7.94028L29.5304 17.9583ZM30.0353 17.9358L17.1419 45.0238L17.2127 45.0575L17.2836 45.0908L30.0353 17.9358ZM32.6017 19.1409L19.85 46.2959L74.8753 72.1352L61.9116 12.7433L32.6017 19.1409ZM31.997 16.3706L2.68385 22.7533L2.68547 22.7608L2.6871 22.7682L31.997 16.3706ZM32.1313 15.8833L10.2447 -4.63438L10.2339 -4.62288L10.2232 -4.61137L32.1313 15.8833ZM34.0705 13.8147L55.9571 34.3325L97.5383 -10.0228L37.0387 -16.0381L34.0705 13.8147ZM31.2489 13.5342L28.272 43.3861L28.2807 43.387L31.2489 13.5342ZM30.827 13.2558L57.1048 -1.21754L57.1028 -1.2212L30.827 13.2558ZM29.4587 10.7723L55.7345 -3.70464L26.4067 -56.9348L1.987 -1.28189L29.4587 10.7723ZM28.3197 13.3683L0.847939 1.31405L0.841404 1.32894L0.834887 1.34383L28.3197 13.3683ZM27.9245 13.684L22.265 -15.7774L22.2635 -15.7771L27.9245 13.684ZM27.0646 13.8492L32.6487 43.3249L32.6871 43.3176L32.7256 43.3103L27.0646 13.8492ZM26.429 13.4175L55.8967 7.79119L55.8953 7.78432L26.429 13.4175ZM26.86 12.7812L21.2104 -16.6821L21.1849 -16.6772L21.1594 -16.6723L26.86 12.7812ZM27.4394 12.6701L33.0889 42.1333L48.5799 39.1629L54.9141 24.7174L27.4394 12.6701ZM28.9054 9.3267L1.44633 -2.75639L1.43846 -2.7385L1.43061 -2.7206L28.9054 9.3267ZM29.3786 9.00186L30.786 38.9688L31.3406 38.9428L31.894 38.8962L29.3786 9.00186ZM29.8792 9.28241L56.1569 -5.19111L56.1472 -5.20862L56.1376 -5.22612L29.8792 9.28241ZM31.6405 12.4802L5.36283 26.9537L12.9715 40.7678L28.6646 42.3322L31.6405 12.4802ZM35.2729 12.8423L32.2969 42.6944L32.3075 42.6954L32.318 42.6965L35.2729 12.8423ZM35.6153 13.7543L13.7992 -6.83844L13.7638 -6.80087L13.7284 -6.76318L35.6153 13.7543ZM33.1185 16.4177L11.2316 -4.09974L0.446009 7.40576L3.80822 22.8136L33.1185 16.4177ZM33.8969 19.9847L4.58657 26.3806L4.59054 26.3987L4.59452 26.4169L33.8969 19.9847ZM33.7049 20.5247L15.0264 -2.9511L15.0126 -2.94013L14.9988 -2.92914L33.7049 20.5247ZM33.1354 20.5922L20.3887 47.7496L20.4093 47.7592L20.4299 47.7688L33.1354 20.5922ZM29.8307 19.0411L42.5773 -8.1163L28.3006 -14.8172L14.6865 -6.85593L29.8307 19.0411ZM26.6793 20.884L41.4332 47.0053L41.6291 46.8946L41.8234 46.781L26.6793 20.884ZM26.4058 -9.04361C30.6121 -9.04361 34.8682 -8.14142 38.8486 -6.28647L13.5044 48.098C17.6297 50.0205 22.0434 50.9564 26.4058 50.9564V-9.04361ZM38.8046 -6.30694C43.1406 -4.29482 46.9222 -1.25759 49.8226 2.54296L2.12556 38.9434C5.13256 42.8836 9.05311 46.0324 13.5485 48.1185L38.8046 -6.30694ZM49.8226 2.54296C52.723 6.34347 54.6547 10.7925 55.4512 15.5058L-3.70986 25.5041C-2.88403 30.3907 -0.881401 35.0032 2.12556 38.9434L49.8226 2.54296ZM55.4424 15.454L55.0796 13.3299L-4.06387 23.4318L-3.70106 25.556L55.4424 15.454ZM55.0765 13.3119C57.827 29.3561 47.0363 44.6222 30.9412 47.3366L20.9633 -11.8279C4.27613 -9.01368 -6.91248 6.81496 -4.0608 23.4498L55.0765 13.3119ZM30.8842 47.3462C14.903 50.0097 -0.254906 39.2559 -2.99124 23.256L56.1501 13.1415C53.3125 -3.45047 37.6006 -14.6008 21.0203 -11.8375L30.8842 47.3462ZM-2.99216 23.2505L-2.76154 24.6005L56.3817 14.4969L56.151 13.1469L-2.99216 23.2505ZM41.9516 45.4473L44.672 43.8568L14.3889 -7.94028L11.6685 -6.34981L41.9516 45.4473ZM44.6173 43.8887C36.374 48.6848 26.098 49.2867 17.1419 45.0238L42.9287 -9.15224C33.6505 -13.5685 22.9963 -12.9483 14.4436 -7.97218L44.6173 43.8887ZM17.2836 45.0908L19.85 46.2959L45.3534 -8.01409L42.787 -9.21924L17.2836 45.0908ZM61.9116 12.7433L61.3069 9.97301L2.6871 22.7682L3.29179 25.5385L61.9116 12.7433ZM61.3102 9.98791C63.3667 19.4329 60.6598 29.3012 54.0394 36.3781L10.2232 -4.61137C3.35815 2.72709 0.551352 12.9596 2.68385 22.7533L61.3102 9.98791ZM54.0179 36.4011L55.9571 34.3325L12.1839 -6.70298L10.2447 -4.63438L54.0179 36.4011ZM37.0387 -16.0381L34.217 -16.3186L28.2807 43.387L31.1024 43.6676L37.0387 -16.0381ZM34.2257 -16.3177C38.978 -15.8438 43.5434 -14.2216 47.5288 -11.5912L14.4783 38.4853C18.6107 41.2127 23.3446 42.8948 28.272 43.3861L34.2257 -16.3177ZM47.5288 -11.5912C51.5142 -8.96089 54.8007 -5.40088 57.1048 -1.21754L4.54919 27.7291C6.93826 32.0667 10.346 35.758 14.4783 38.4853L47.5288 -11.5912ZM57.1028 -1.2212L55.7345 -3.70464L3.18293 25.2493L4.55121 27.7327L57.1028 -1.2212ZM1.987 -1.28189L0.847939 1.31405L55.7914 25.4225L56.9305 22.8265L1.987 -1.28189ZM0.834887 1.34383C2.75017 -3.03401 5.70183 -6.88041 9.43549 -9.86335L46.8867 37.0132C50.758 33.9202 53.8185 29.932 55.8044 25.3927L0.834887 1.34383ZM9.43549 -9.86335C13.1691 -12.8463 17.5723 -14.8759 22.265 -15.7774L33.584 43.1453C38.4498 42.2106 43.0153 40.1061 46.8867 37.0132L9.43549 -9.86335ZM22.2635 -15.7771L21.4036 -15.6118L32.7256 43.3103L33.5855 43.145L22.2635 -15.7771ZM21.4805 -15.6265C37.3334 -18.6298 52.8266 -8.28839 55.8967 7.79119L-3.03873 19.0438C0.143858 35.7126 16.2094 46.4393 32.6487 43.3249L21.4805 -15.6265ZM55.8953 7.78432C57.3601 15.4462 55.7258 23.3761 51.3513 29.8344L1.67451 -3.81403C-2.86162 2.88287 -4.55627 11.1057 -3.03742 19.0507L55.8953 7.78432ZM51.3513 29.8344C46.9767 36.2929 40.2189 40.7523 32.5605 42.2346L21.1594 -16.6723C13.2182 -15.1353 6.21075 -10.5111 1.67451 -3.81403L51.3513 29.8344ZM32.5096 42.2444L33.0889 42.1333L21.7898 -16.7932L21.2104 -16.6821L32.5096 42.2444ZM54.9141 24.7174L56.3801 21.374L1.43061 -2.7206L-0.0354099 0.622763L54.9141 24.7174ZM56.3644 21.4098C54.1568 26.4266 50.5932 30.7279 46.0744 33.83L12.117 -15.6361C7.43107 -12.4193 3.73561 -7.95882 1.44633 -2.75639L56.3644 21.4098ZM46.0744 33.83C41.5555 36.9321 36.2608 38.7117 30.786 38.9688L27.9711 -20.9651C22.2938 -20.6985 16.8032 -18.8531 12.117 -15.6361L46.0744 33.83ZM31.894 38.8962C18.6371 40.0117 8.37372 32.393 3.62081 23.7909L56.1376 -5.22612C51.185 -14.1896 40.5546 -22.0445 26.8632 -20.8925L31.894 38.8962ZM3.6015 23.7559L5.36283 26.9537L57.9182 -1.9933L56.1569 -5.19111L3.6015 23.7559ZM28.6646 42.3322L32.2969 42.6944L38.2488 -17.0097L34.6165 -17.3718L28.6646 42.3322ZM32.318 42.6965C21.0974 41.5859 11.5977 34.1965 7.66738 23.8037L63.7882 2.57984C59.7116 -8.19965 49.8604 -15.8604 38.2277 -17.0118L32.318 42.6965ZM7.66738 23.8037C3.68367 13.2699 6.0509 1.3702 13.7992 -6.83844L57.4313 34.347C65.4637 25.8374 67.9182 13.5004 63.7882 2.57984L7.66738 23.8037ZM13.7284 -6.76318L11.2316 -4.09974L55.0053 36.9352L57.5021 34.2717L13.7284 -6.76318ZM3.80822 22.8136L4.58657 26.3806L63.2071 13.5888L62.4288 10.0218L3.80822 22.8136ZM4.59452 26.4169C2.18192 15.4262 6.24167 4.03845 15.0264 -2.9511L52.3834 44.0004C61.4916 36.7536 65.7004 24.9468 63.1992 13.5525L4.59452 26.4169ZM14.9988 -2.92914C19.2889 -6.35085 24.4496 -8.50607 29.8989 -9.15191L36.9606 50.4311C42.6112 49.7614 47.9624 47.5266 52.411 43.9785L14.9988 -2.92914ZM29.8989 -9.15191C35.3484 -9.79778 40.8699 -8.90849 45.8408 -6.58449L20.4299 47.7688C25.5845 50.1787 31.3098 51.1008 36.9606 50.4311L29.8989 -9.15191ZM45.882 -6.56521L42.5773 -8.1163L17.084 46.1985L20.3887 47.7496L45.882 -6.56521ZM14.6865 -6.85593L11.5351 -5.01304L41.8234 46.781L44.9748 44.9381L14.6865 -6.85593ZM11.9254 -5.23734C16.3122 -7.71511 21.2615 -9.02563 26.2998 -9.04342L26.5117 50.9562C31.7417 50.9377 36.8794 49.5773 41.4332 47.0053L11.9254 -5.23734Z" fill="#CBC2D6" mask="url(#path-3-inside-1_4_333)"/>
<path d="M8.87133 23.3142L8.01141 23.149L6.43008 19.5448L4.53094 22.9922L0.613831 23.3824L3.3061 26.254L2.46657 30.1001L6.0293 28.4266L9.4275 30.4137L9.79032 28.2902" fill="#FDFAFF"/>
<path d="M9.35722 19.914C9.2623 19.914 9.16737 19.8894 9.083 19.8395L5.93159 17.9966L2.62691 19.5477C2.44058 19.6356 2.21909 19.6096 2.05737 19.4802C1.9781 19.4171 1.91809 19.3331 1.88416 19.2376C1.85023 19.1422 1.84374 19.0391 1.86542 18.9402L2.64378 15.3732L0.146984 12.7105C0.00565592 12.56 -0.0379378 12.3421 0.0344841 12.148C0.106906 11.9539 0.28339 11.8189 0.489406 11.7985L4.12245 11.4364L5.88378 8.23863C5.98292 8.05792 6.17347 7.93909 6.38441 7.95808C6.59113 7.96792 6.77464 8.09308 6.85761 8.28292L8.32433 11.6263L8.9037 11.7374C9.19831 11.7943 9.39097 12.0791 9.33472 12.3737C9.27847 12.6683 8.993 12.861 8.69909 12.8054L7.83917 12.6402C7.66339 12.6064 7.51573 12.4883 7.44402 12.3245L6.30495 9.72855L4.93667 12.212C4.89423 12.2891 4.83364 12.3548 4.76014 12.4033C4.68664 12.4518 4.60243 12.4817 4.5148 12.4904L1.69316 12.771L3.63237 14.8396C3.69272 14.9037 3.7365 14.9816 3.7599 15.0666C3.7833 15.1515 3.78563 15.2408 3.76667 15.3268L3.16198 18.0971L5.72839 16.892C5.89011 16.8153 6.07925 16.8245 6.23323 16.9145L8.95362 18.505L9.18425 17.155C9.21013 17.0145 9.29028 16.8898 9.40735 16.808C9.52442 16.7261 9.66901 16.6937 9.80983 16.7176C9.95066 16.7415 10.0764 16.8199 10.1599 16.9359C10.2433 17.0518 10.2778 17.1959 10.2558 17.3371L9.893 19.4612C9.87833 19.5478 9.84282 19.6295 9.78954 19.6993C9.73625 19.7692 9.66679 19.825 9.58714 19.862C9.51402 19.8971 9.43527 19.914 9.35722 19.914ZM4.60409 -0.769109C4.51481 -0.769161 4.42692 -0.791226 4.34819 -0.833353C4.26947 -0.87548 4.20236 -0.936367 4.15278 -1.01062C4.10321 -1.08488 4.07271 -1.17022 4.06398 -1.25907C4.05526 -1.34793 4.06858 -1.43757 4.10277 -1.52005C4.12316 -1.56926 6.203 -6.45739 10.9153 -5.43575C11.2085 -5.37176 11.3949 -5.08278 11.3309 -4.78958C11.3159 -4.71977 11.2873 -4.65361 11.2466 -4.59488C11.206 -4.53616 11.1542 -4.48603 11.0942 -4.44736C11.0342 -4.40869 10.9671 -4.38225 10.8968 -4.36954C10.8266 -4.35684 10.7545 -4.35813 10.6847 -4.37333C6.86745 -5.20512 5.17573 -1.27114 5.10613 -1.10309C5.06468 -1.00414 4.99491 -0.91964 4.90559 -0.860217C4.81627 -0.800794 4.71138 -0.769097 4.60409 -0.769109ZM31.2244 -0.343015C30.9579 -0.343015 30.7252 -0.539187 30.6872 -0.810593C30.1409 -4.69536 25.8715 -4.907 25.6901 -4.91403C25.3906 -4.92598 25.1564 -5.17841 25.1684 -5.47794C25.1803 -5.77747 25.4363 -6.0102 25.7323 -5.99966C25.7857 -5.99755 31.0922 -5.73528 31.763 -0.962468C31.8052 -0.665046 31.5978 -0.390827 31.3003 -0.348639C31.2757 -0.345124 31.2497 -0.343015 31.2244 -0.343015Z" fill="#CBC2D6"/>
</g>
<defs>
<clipPath id="clip0_4_333">
<rect width="36" height="36" fill="white"/>
</clipPath>
</defs>
</svg>
