<svg width="20" height="20" viewBox="0 0 20 20" fill="none" xmlns="http://www.w3.org/2000/svg">
<path d="M19.335 9.84961L10.4856 1.00664C10.4219 0.942798 10.3462 0.892148 10.2629 0.857589C10.1795 0.823031 10.0902 0.805243 10 0.805243C9.90984 0.805243 9.82052 0.823031 9.73721 0.857589C9.65389 0.892148 9.57821 0.942798 9.51449 1.00664L0.665076 9.84961C0.407263 10.1074 0.261169 10.4576 0.261169 10.8229C0.261169 11.5813 0.877771 12.1979 1.63617 12.1979H2.56859V18.5078C2.56859 18.8881 2.87582 19.1953 3.25609 19.1953H8.62504V14.3828H11.0313V19.1953H16.744C17.1243 19.1953 17.4315 18.8881 17.4315 18.5078V12.1979H18.3639C18.7291 12.1979 19.0793 12.0539 19.3371 11.7939C19.8721 11.2568 19.8721 10.3867 19.335 9.84961Z" fill="#43195F" fill-opacity="0.25"/>
</svg>
