<svg width="18" height="20" viewBox="0 0 18 20" fill="none" xmlns="http://www.w3.org/2000/svg">
<path fill-rule="evenodd" clip-rule="evenodd" d="M9.01016 1.5H8.99289C6.86763 1.5 5.13673 3.194 5.12657 5.284V6.627H12.8724V5.301C12.8724 3.205 11.1395 1.5 9.01016 1.5ZM14.397 5.301V6.898C16.197 7.519 17.5 9.188 17.5 11.169V15.458C17.5 17.963 15.4286 20 12.8826 20H12.8531H9.44213C9.02134 20 8.67984 19.664 8.67984 19.25C8.67984 18.836 9.02134 18.5 9.44213 18.5H12.8531C14.5586 18.5 15.9449 17.136 15.9449 15.458C15.9449 15.4214 15.9545 15.3883 15.964 15.3552C15.9681 15.3412 15.9721 15.3272 15.9754 15.313V11.169C15.9754 9.491 14.5881 8.127 12.8826 8.127H5.11742C3.41193 8.127 2.02457 9.491 2.02457 11.169V15.313C2.02782 15.3283 2.032 15.3434 2.03619 15.3584C2.04511 15.3905 2.05405 15.4226 2.05405 15.458C2.05405 17.136 3.44141 18.5 5.1469 18.5C5.56768 18.5 5.90918 18.836 5.90918 19.25C5.90918 19.664 5.56768 20 5.1469 20C5.14334 20 5.14004 19.9995 5.13673 19.999C5.13343 19.9985 5.13013 19.998 5.12657 19.998C5.12504 19.998 5.12352 19.9985 5.122 19.999C5.12047 19.9995 5.11895 20 5.11742 20C2.57139 20 0.5 17.963 0.5 15.458V11.169C0.5 9.188 1.80198 7.519 3.602 6.898V5.301C3.61521 2.363 6.03013 0 8.98984 0H9.01321C11.98 0 14.397 2.378 14.397 5.301ZM9.76208 12.2028V14.4238C9.76208 14.8378 9.42058 15.1738 8.9998 15.1738C8.57901 15.1738 8.23751 14.8378 8.23751 14.4238V12.2028C8.23751 11.7888 8.57901 11.4528 8.9998 11.4528C9.42058 11.4528 9.76208 11.7888 9.76208 12.2028Z" fill="#441960"/>
</svg>
