<svg width="22" height="22" viewBox="0 0 22 22" fill="none" xmlns="http://www.w3.org/2000/svg">
<path d="M11.038 21.9998C11.5171 21.987 11.9768 21.7793 12.3358 21.4134C12.6949 21.0474 12.9301 20.5467 13 20H9C9.07184 20.5616 9.31812 21.074 9.69301 21.4419C10.0679 21.8097 10.5459 22.008 11.038 21.9998Z" fill="#910A8E"/>
<path d="M20.075 17.1905L19.8672 17.0072C19.2778 16.482 18.7618 15.8797 18.3333 15.2167C17.8654 14.3016 17.5849 13.3022 17.5083 12.2772V9.25833C17.5059 8.89163 17.4732 8.52576 17.4106 8.16444C16.3754 7.95167 15.4456 7.38773 14.7785 6.56808C14.1114 5.74844 13.7481 4.72345 13.75 3.66666V3.28166C13.112 2.96767 12.4264 2.76118 11.7211 2.67055V1.90055C11.7211 1.68418 11.6352 1.47667 11.4822 1.32367C11.3292 1.17067 11.1217 1.08472 10.9053 1.08472C10.6889 1.08472 10.4814 1.17067 10.3284 1.32367C10.1754 1.47667 10.0894 1.68418 10.0894 1.90055V2.70111C8.51016 2.92389 7.0648 3.7105 6.02019 4.91573C4.97559 6.12096 4.40228 7.66341 4.40611 9.25833V12.2772C4.32958 13.3022 4.04909 14.3016 3.58111 15.2167C3.15999 15.8781 2.65234 16.4803 2.07167 17.0072L1.86389 17.1905V18.9139H20.075V17.1905Z" fill="#910A8E"/>
<path d="M18.3334 6.72223C20.0209 6.72223 21.3889 5.35421 21.3889 3.66667C21.3889 1.97913 20.0209 0.611115 18.3334 0.611115C16.6459 0.611115 15.2778 1.97913 15.2778 3.66667C15.2778 5.35421 16.6459 6.72223 18.3334 6.72223Z" fill="#FF0000" fill-opacity="0.25"/>
</svg>
